#!OML:ASF F:\VICON\USERDATA\INSTALL\rory3\rory3.ASF
:FULLY-SPECIFIED
:DEGREES
3846
root 1.10998 15.6178 2.60247 4.51227 14.7169 0.288909
lowerback 11.2431 -5.09456 -10.2277
upperback 1.28281 -7.90121 2.26755
thorax -3.20225 -3.80988 9.1361
lowerneck -15.9386 -4.49804 -10.9688
upperneck 18.9613 -5.99056 11.4526
head 9.27624 -2.41673 5.02971
rclavicle 2.11706e-014 -4.73108e-014
rhumerus -32.4148 14.5189 -85.8807
rradius 119.518
rwrist 19.1045
rhand -23.4696 25.3735
rfingers 7.12502
rthumb 2.98957 -4.58524
lclavicle 2.11706e-014 -4.73108e-014
lhumerus -8.21675 0.949166 90.389
lradius 116.719
lwrist -24.394
lhand -11.3607 5.80311
lfingers 7.12502
lthumb 14.673 35.2639
rfemur -52.3995 8.74995 12.3079
rtibia 36.8551
rfoot 19.1102 9.17772
rtoes 19.6059
lfemur 17.5885 3.41521 -23.3135
ltibia 33.6392
lfoot -23.9931 9.22603
ltoes -40.0316
3847
root 1.10004 15.5916 2.58103 4.40681 14.1225 0.392083
lowerback 11.0654 -5.17182 -10.4063
upperback 1.27365 -8.0063 2.33453
thorax -3.05543 -3.87142 9.29257
lowerneck -16.5219 -4.32196 -10.8609
upperneck 19.2991 -5.67702 11.1694
head 9.44871 -2.27355 4.95898
rclavicle 3.06625e-014 -1.78906e-014
rhumerus -32.3754 14.6766 -86.329
rradius 118.724
rwrist 19.3995
rhand -22.061 24.835
rfingers 7.12502
rthumb 4.34989 -5.10031
lclavicle 3.06625e-014 -1.78906e-014
lhumerus -7.73967 1.52046 90.4387
lradius 116.591
lwrist -24.5559
lhand -11.3047 5.79747
lfingers 7.12502
lthumb 14.727 35.2543
rfemur -52.4974 8.90378 12.3859
rtibia 36.8456
rfoot 19.5538 8.89151
rtoes 21.0534
lfemur 17.9127 3.97526 -23.4978
ltibia 33.3375
lfoot -24.2774 9.65183
ltoes -40.1555
3848
root 1.091 15.5704 2.56321 4.27472 13.6471 0.440204
lowerback 10.849 -5.29082 -10.5173
upperback 1.34993 -8.14905 2.42095
thorax -2.7925 -3.96483 9.42163
lowerneck -17.1023 -4.10185 -10.7931
upperneck 19.499 -5.30469 10.9978
head 9.57187 -2.09629 4.94122
rclavicle -8.02593e-014 2.06736e-014
rhumerus -32.2948 14.9758 -86.7608
rradius 117.979
rwrist 19.5645
rhand -20.9431 24.6253
rfingers 7.12502
rthumb 5.42924 -5.28511
lclavicle -8.02593e-014 2.06736e-014
lhumerus -7.12283 2.07085 90.4411
lradius 116.501
lwrist -24.5014
lhand -11.1768 5.79313
lfingers 7.12502
lthumb 14.8502 35.241
rfemur -52.6018 9.07056 12.464
rtibia 36.8875
rfoot 19.9212 8.82539
rtoes 21.3945
lfemur 18.3075 4.40234 -23.614
ltibia 32.9071
lfoot -24.5776 10.0215
ltoes -39.7855
3849
root 1.08186 15.5572 2.547 4.17073 13.313 0.583145
lowerback 10.7826 -5.38952 -10.6894
upperback 1.35743 -8.29087 2.50448
thorax -2.67689 -4.04396 9.60632
lowerneck -17.5611 -3.92152 -10.7329
upperneck 19.6346 -4.98278 10.7856
head 9.65657 -1.95196 4.90245
rclavicle 3.74212e-014 1.35174e-014
rhumerus -32.5019 15.2103 -87.1523
rradius 117.449
rwrist 19.8324
rhand -19.9443 24.7507
rfingers 7.12502
rthumb 6.3936 -5.13278
lclavicle 3.74212e-014 1.35174e-014
lhumerus -6.50784 2.47062 90.3958
lradius 116.4
lwrist -24.3711
lhand -11.2923 5.97704
lfingers 7.12502
lthumb 14.7389 35.433
rfemur -52.6856 9.20268 12.398
rtibia 36.9656
rfoot 20.2356 8.8426
rtoes 21.3055
lfemur 18.7135 4.6334 -23.8498
ltibia 32.3812
lfoot -24.9082 10.2767
ltoes -38.8748
3850
root 1.07104 15.5509 2.53526 4.13593 13.1224 0.742053
lowerback 10.7729 -5.50641 -10.8881
upperback 1.34022 -8.46636 2.60883
thorax -2.60238 -4.13605 9.83948
lowerneck -18.0574 -3.74343 -10.6568
upperneck 19.7594 -4.6594 10.5572
head 9.74457 -1.80743 4.8557
rclavicle -4.26393e-014 1.53064e-014
rhumerus -32.9507 15.4489 -87.5724
rradius 117.185
rwrist 20.2555
rhand -19.3884 25.1676
rfingers 7.12502
rthumb 6.93019 -4.69892
lclavicle -4.26393e-014 1.53064e-014
lhumerus -5.91068 2.87124 90.3069
lradius 116.339
lwrist -24.3932
lhand -11.3257 5.88467
lfingers 7.12502
lthumb 14.7067 35.343
rfemur -52.789 9.25582 12.2969
rtibia 37.0862
rfoot 20.4139 9.03863
rtoes 20.9615
lfemur 19.0809 4.7394 -24.0731
ltibia 31.768
lfoot -25.0823 10.4782
ltoes -38.5011
3851
root 1.05931 15.548 2.532 4.17206 13.038 0.87425
lowerback 10.7986 -5.63742 -11.0514
upperback 1.23013 -8.66483 2.72573
thorax -2.64274 -4.22738 10.0807
lowerneck -18.4591 -3.50023 -10.3269
upperneck 19.8924 -4.27282 10.0967
head 9.79988 -1.6432 4.69095
rclavicle 5.98839e-014 -2.64384e-014
rhumerus -33.7332 15.6811 -88.0564
rradius 117.256
rwrist 20.5836
rhand -18.8458 25.4229
rfingers 7.12502
rthumb 7.45402 -4.42574
lclavicle 5.98839e-014 -2.64384e-014
lhumerus -5.5249 3.19124 90.2257
lradius 116.347
lwrist -24.2049
lhand -11.231 5.83203
lfingers 7.12502
lthumb 14.7979 35.2837
rfemur -52.9087 9.20174 12.2422
rtibia 37.2276
rfoot 20.4878 9.33041
rtoes 20.6652
lfemur 19.423 4.84649 -24.1754
ltibia 31.0816
lfoot -25.2078 10.4808
ltoes -38.4719
